<svg width="120" height="120" viewBox="0 0 120 120" fill="none" xmlns="http://www.w3.org/2000/svg">
<g clip-path="url(#clip0_594_687)">
<path d="M110.323 97.6452V92.9032H100.705L102.523 32.9032H110.323V19.3548C110.323 16.1535 107.717 13.5484 104.516 13.5484H102.581V5.80645H98.7097V13.5484H94.8388V0H25.1614V13.5484H21.2904V5.80645H17.4194V13.5484H15.4839C12.2826 13.5484 9.67748 16.1535 9.67748 19.3548V32.9032H17.4755L19.293 92.9032H9.67748V97.6452H-0.0644531V115.258H9.67748V120H25.1614V116.129H94.8388V120H110.323V115.258H120.065V97.6452H110.323ZM9.67748 111.387H3.80651V101.516H9.67748V111.387ZM29.0323 3.87097H90.9678V13.5484H29.0323V3.87097ZM13.5485 29.0323V19.3548C13.5485 18.2884 14.4155 17.4194 15.4839 17.4194H25.1614H94.8388H104.516C105.585 17.4194 106.452 18.2884 106.452 19.3548V29.0323H13.5485ZM21.2904 116.129H13.5485V96.7742H21.2904V116.129ZM96.8343 92.9032H94.8388V112.258H25.1614V92.9032H23.1697L21.3523 32.9032H98.6517L96.8343 92.9032ZM106.452 116.129H98.7097V96.7742H106.452V116.129ZM116.194 111.387H110.323V101.516H116.194V111.387Z" fill="#BF9C56"/>
<path d="M76.7299 74.089L61.5998 41.0266C61.3136 40.4013 60.6887 40 60.0004 40C59.3122 40 58.6873 40.4013 58.401 41.0266L43.271 74.089C40.6659 79.7818 41.1312 86.3247 44.516 91.5913C51.7542 102.855 68.3132 102.751 75.485 91.5913C78.8682 86.3268 79.3341 79.7798 76.7299 74.089ZM60.0004 45.9836L73.5311 75.5511V75.5512C73.8774 76.308 74.1553 77.0836 74.3677 77.87C65.5866 75.8404 57.6254 71.074 51.6464 64.2391L60.0004 45.9836ZM47.4755 89.6916C44.7417 85.4375 44.3653 80.1528 46.4684 75.5542C50.9634 84.0924 58.2423 90.865 67.0893 94.7275C60.4873 98.2728 51.8094 96.4353 47.4755 89.6916ZM72.5254 89.6916C71.9128 90.645 71.203 91.5114 70.4145 92.2832C60.5605 88.5912 52.5986 81.0496 48.3705 71.3976L50.0544 67.718C56.6928 74.8115 65.3757 79.6666 74.8775 81.576C74.9035 84.4046 74.1126 87.2218 72.5254 89.6916Z" fill="#BF9C56"/>
</g>
<defs>
<clipPath id="clip0_594_687">
<rect width="120" height="120" fill="white"/>
</clipPath>
</defs>
</svg>
