<svg width="120" height="120" viewBox="0 0 120 120" fill="none" xmlns="http://www.w3.org/2000/svg">
<path d="M105.492 12.6316H102.316V6.71555C102.316 3.01266 99.303 0 95.6004 0H24.3996C20.6969 0 17.6843 3.01266 17.6843 6.71555V12.6316H14.508C10.6873 12.6316 7.57874 15.7399 7.57874 19.5605V118.105C7.57874 119.152 8.4267 120 9.47342 120H110.526C111.573 120 112.421 119.152 112.421 118.105V19.5605C112.421 15.7399 109.313 12.6316 105.492 12.6316ZM11.3683 19.5605C11.3683 17.8294 12.7767 16.421 14.508 16.421H17.684V41.7764L11.3683 38.6184V19.5605ZM12.6623 116.211L20.0376 102.663C20.3306 102.438 20.6878 102.316 21.0637 102.316H98.9365C99.3122 102.316 99.6694 102.438 99.9626 102.663L107.337 116.211H12.6623ZM108.632 110.662L103.159 100.608C103.065 100.436 102.953 100.274 102.815 100.136C101.78 99.0977 100.402 98.5263 98.9362 98.5263H61.8947V90.3952C61.8947 89.3576 61.095 88.4529 60.0581 88.422C58.9849 88.3898 58.1053 89.25 58.1053 90.3159V98.5266H21.0637C19.598 98.5266 18.2203 99.0982 17.1848 100.136C17.0465 100.274 16.935 100.436 16.8415 100.608L11.3683 110.662V42.8552L18.7315 46.5368C18.9947 46.6685 19.2848 46.737 19.579 46.737H58.1051V55.7698C53.786 56.6498 50.5261 60.4777 50.5261 65.0527C50.5261 69.6279 53.786 73.4555 58.1051 74.3355V75.0783C58.1051 76.1159 58.9048 77.0205 59.9416 77.0515C61.0148 77.0836 61.8944 76.2234 61.8944 75.1575V74.3351C66.2135 73.455 69.4734 69.6272 69.4734 65.0522C69.4734 60.477 66.2135 56.6494 61.8944 55.7693V46.7367H75.0668C76.1133 46.7367 76.9615 45.8883 76.9615 44.842C76.9615 43.7955 76.113 42.9473 75.0668 42.9473H21.4737V6.71555C21.4737 5.09953 22.7838 3.78961 24.3996 3.78961H95.6004C97.2162 3.78961 98.5263 5.09953 98.5263 6.71555V42.9476H83.4215C82.3751 42.9476 81.5269 43.796 81.5269 44.8423C81.5269 45.8887 82.3753 46.737 83.4215 46.737H100.421C100.715 46.737 101.005 46.6685 101.269 46.5368L108.631 42.8552V110.662H108.632ZM60 59.3684C63.134 59.3684 65.6843 61.9181 65.6843 65.0527C65.6843 68.187 63.1343 70.737 60 70.737C56.8657 70.737 54.3157 68.1872 54.3157 65.0527C54.3157 61.9181 56.8659 59.3684 60 59.3684ZM108.632 38.6184L102.316 41.7764V16.421H105.492C107.223 16.421 108.632 17.8294 108.632 19.5605V38.6184Z" fill="#CCA352"/>
<path d="M60.0002 67.5781C61.3955 67.5781 62.5265 66.447 62.5265 65.0517C62.5265 63.6565 61.3955 62.5254 60.0002 62.5254C58.605 62.5254 57.4739 63.6565 57.4739 65.0517C57.4739 66.447 58.605 67.5781 60.0002 67.5781Z" fill="#CCA352"/>
<path fill-rule="evenodd" clip-rule="evenodd" d="M65.5422 17.5738C65.0732 17.1645 64.3988 17.1741 64.0114 17.2926C64.265 16.9832 64.8559 16.7292 65.0295 16.6981C65.1622 16.7478 65.5422 17.1362 65.5422 17.5738ZM67.0395 15.8789C66.731 14.2365 62.897 15.3251 60.9657 14.6272C60.9289 15.106 61.5601 15.8733 62.1642 16.1572C61.1319 17.0493 60.2052 18.8463 60.018 21.042C59.8314 18.8463 58.9047 17.0493 57.8718 16.1572C58.4759 15.8733 59.1083 15.106 59.0703 14.6272C57.1396 15.3251 53.305 14.2371 52.9959 15.8795C52.9313 16.2273 53.0991 16.7568 53.2806 16.9093C53.313 16.7986 53.4825 16.4384 54.0174 16.3577C56.7182 15.9512 58.9744 20.0957 56.9383 21.772C56.9071 21.7974 56.9247 21.8442 56.9666 21.8442H63.0705C63.1119 21.8442 63.1295 21.7974 63.0989 21.772C61.0627 20.0963 63.3178 15.9512 66.0192 16.3577C66.554 16.4384 66.7231 16.7992 66.756 16.9093C66.9375 16.7568 67.1053 16.2267 67.0395 15.8789ZM67.6969 12.1098C67.6481 11.9545 69.2322 11.9506 69.2322 12.9375C69.2322 13.5986 68.285 13.9119 68.285 14.5984C68.285 14.918 68.6299 15.1523 68.7359 15.1523C68.4921 14.0508 69.5016 14.6272 69.7739 14.8333C69.2322 13.3513 70.4511 13.3609 70.3308 12.6811C70.2474 12.2069 69.188 12.3497 68.8051 12.1098C68.1245 11.6835 67.3192 10.0242 66.7889 11.6835C67.7774 12.597 67.2023 13.9424 65.9466 13.9424C65.9466 13.9424 65.9398 14.14 65.9512 14.1552C67.4485 14.0824 67.9703 12.9866 67.6969 12.1098ZM50.2259 14.8333C50.4981 14.6272 51.5077 14.0508 51.2638 15.1523C51.3693 15.1523 51.7152 14.918 51.7152 14.599C51.7152 13.9119 50.7675 13.5986 50.7675 12.9375C50.7675 11.9506 52.3516 11.9545 52.3028 12.1098C52.0295 12.9871 52.5513 14.0824 54.0486 14.1552C54.0599 14.14 54.0531 13.9424 54.0531 13.9424C52.798 13.9424 52.2223 12.597 53.2109 11.683C52.6806 10.0242 51.8758 11.683 51.1952 12.1098C50.8117 12.3497 49.7517 12.2063 49.6683 12.6811C49.5492 13.3609 50.7675 13.3519 50.2259 14.8333ZM54.4779 17.5738C54.9475 17.1645 55.6219 17.1741 56.0081 17.2926C55.7563 16.9832 55.1642 16.7292 54.9906 16.6981C54.8585 16.7478 54.4779 17.1362 54.4779 17.5738ZM60.7304 8.38639L59.9999 7.5L59.2694 8.38639L59.9999 9.31964L60.7304 8.38639ZM64.9002 11.0676L64.3807 10.4375L63.8617 11.0676L64.3807 11.683L64.9002 11.0676ZM69.1137 29.2797L68.4552 28.5859L67.7967 29.2792L68.4552 29.8878L69.1131 29.2792L69.1137 29.2797ZM56.138 11.0676L55.6191 10.4375L55.1001 11.0676L55.6191 11.683L56.138 11.0676ZM54.6503 14.1558H56.5878C58.2167 14.1558 58.95 13.1599 59.1712 12.2972H60.8291C61.0503 13.1605 61.783 14.1552 63.4125 14.1552H65.35C65.35 14.1552 65.6891 13.6979 65.7736 13.471C66.0799 12.6557 65.6886 12.2752 65.1185 12.2752L64.3812 12.9403L63.6439 12.2752C63.0728 12.2752 62.682 12.6557 62.9877 13.471C63.0274 13.5754 63.1204 13.7284 63.2089 13.8634C62.5215 13.7691 61.6435 13.3005 61.4512 12.2972C61.4512 12.2972 61.9594 11.4938 62.087 11.1686C62.5447 9.99995 61.96 9.52175 61.1047 9.52175L59.9999 10.8146L58.8956 9.52175C58.0397 9.52175 57.455 9.99939 57.9138 11.1686C58.0403 11.4938 58.549 12.2972 58.549 12.2972C58.3562 13.3005 57.4788 13.7691 56.7908 13.8634C56.8804 13.7284 56.9735 13.5754 57.012 13.471C57.3177 12.6557 56.9275 12.2752 56.3569 12.2752L55.6196 12.9403L54.8817 12.2752C54.3106 12.2752 53.921 12.6557 54.2261 13.4715C54.3112 13.6974 54.6503 14.1558 54.6503 14.1558ZM74.6816 20.1336C74.3072 20.3221 72.1134 21.3452 69.3031 20.9669C69.3321 20.8334 69.3567 20.6989 69.3768 20.5638C71.2479 20.3413 72.7685 20.0252 73.7372 19.4888C74.8415 18.8768 75.3247 17.4163 74.7672 16.3294C74.7525 16.3018 74.7128 16.2973 74.6929 16.3198C74.3866 16.6699 72.4662 18.7504 69.4398 19.3968C69.432 19.2408 69.4176 19.0852 69.3967 18.9305C70.8668 18.1005 72.3017 17.1447 72.9852 16.2702C74.018 14.9485 73.9233 13.2621 72.9398 12.4028C72.9322 12.3965 72.9228 12.3927 72.9129 12.392C72.903 12.3912 72.8932 12.3937 72.8848 12.3988C72.8791 12.4023 72.8743 12.4069 72.8706 12.4124C72.5598 12.9233 69.6491 17.6065 66.4525 19.6283C66.4135 19.6533 66.3742 19.6777 66.3346 19.7017C66.3137 19.7136 66.296 19.7304 66.2829 19.7506C66.2699 19.7708 66.2619 19.7938 66.2596 19.8176C66.2574 19.8415 66.2608 19.8656 66.2698 19.8879C66.2788 19.9101 66.293 19.9299 66.3113 19.9456C66.68 20.2787 66.9085 20.7405 66.9085 21.2543C66.9085 22.1474 66.2172 22.8898 65.3034 23.0513C64.8384 23.1405 64.1685 23.1145 63.5242 22.9028C63.4953 22.8932 63.4653 22.9124 63.4653 22.9412V25.7698C63.4653 25.8149 63.535 25.8262 63.5509 25.7827C63.9422 24.7501 65.1146 24.5311 65.6273 24.5311C65.8116 25.6343 66.1412 26.5483 66.5688 27.0406C67.2664 27.8401 68.4042 27.8288 68.8976 27.2761C68.9038 27.2693 68.9076 27.2606 68.9081 27.2514C68.9086 27.2423 68.9059 27.2332 68.9004 27.2258C68.8968 27.2211 68.8921 27.2172 68.8868 27.2145C68.5964 27.0485 66.9375 26.0345 66.6057 24.373C66.7361 24.329 66.8632 24.277 66.9874 24.2166C67.5228 25.099 68.3021 25.8844 68.9299 26.1847C69.9837 26.6878 70.949 26.4433 71.3767 25.7065C71.392 25.6806 71.3733 25.6484 71.3415 25.645C70.6893 25.5936 68.6889 25.0223 67.8364 23.6317C67.9351 23.5425 68.0293 23.4488 68.1189 23.3505C69.0105 24.0263 70.2707 24.6237 71.1736 24.745C72.2291 24.8884 73.4253 24.5531 73.4548 23.3308C73.4548 23.3065 73.4332 23.2862 73.4071 23.2879C73.0317 23.3105 70.5463 23.4177 68.7756 22.406C68.8369 22.2897 68.8948 22.1711 68.9475 22.0503C68.9475 22.0503 71.6234 22.6804 72.891 22.4715C74.1513 22.2649 74.8891 21.3299 74.7468 20.1663C74.7428 20.1381 74.7088 20.12 74.6816 20.1336ZM51.0522 22.0503C51.1055 22.1706 51.1628 22.2891 51.2246 22.406C49.4539 23.4166 46.9698 23.3105 46.5926 23.2873C46.5659 23.2862 46.5438 23.3071 46.5444 23.3308C46.5739 24.5531 47.77 24.8879 48.8261 24.745C49.7279 24.6231 50.9893 24.0263 51.8803 23.3505C51.9699 23.4488 52.0641 23.5425 52.1622 23.6317C51.3103 25.0223 49.3093 25.593 48.6571 25.645C48.6259 25.6484 48.6077 25.6806 48.623 25.7065C49.0507 26.4433 50.0154 26.6878 51.0698 26.1847C51.6971 25.8844 52.4764 25.099 53.0118 24.2166C53.1354 24.2764 53.263 24.3284 53.3935 24.373C53.0617 26.034 51.4027 27.048 51.1123 27.2139C51.107 27.2168 51.1024 27.2208 51.0988 27.2257C51.0953 27.2306 51.0929 27.2362 51.0919 27.2422C51.0909 27.2482 51.0911 27.2544 51.0928 27.2602C51.0945 27.2661 51.0975 27.2715 51.1016 27.2761C51.595 27.8288 52.7333 27.8395 53.4304 27.0406C53.8586 26.5483 54.1875 25.6348 54.3719 24.5311C54.8846 24.5311 56.0563 24.7501 56.4477 25.7827C56.4647 25.8262 56.5345 25.8149 56.5345 25.7692V22.9412C56.5345 22.913 56.5038 22.8932 56.4749 22.9028C55.8306 23.1145 55.1602 23.1405 54.6963 23.0507C53.782 22.8898 53.0906 22.1474 53.0906 21.2543C53.0906 20.7405 53.3198 20.2775 53.6879 19.9456C53.7061 19.9299 53.7204 19.9102 53.7294 19.888C53.7384 19.8657 53.742 19.8417 53.7398 19.8178C53.7376 19.7939 53.7297 19.7709 53.7167 19.7507C53.7037 19.7305 53.686 19.7137 53.6652 19.7017C53.6251 19.6777 53.5854 19.6532 53.5461 19.6283C50.3518 17.6076 47.4428 12.9279 47.1291 12.4135C47.1253 12.4079 47.1204 12.4031 47.1147 12.3995C47.1089 12.3959 47.1024 12.3936 47.0957 12.3926C47.089 12.3917 47.0822 12.3923 47.0757 12.3942C47.0692 12.3962 47.0633 12.3995 47.0582 12.4039C46.077 13.2638 45.9806 14.949 47.014 16.2702C47.6974 17.1447 49.1329 18.1005 50.6019 18.9305C50.5815 19.0851 50.5673 19.241 50.5599 19.3968C47.5358 18.7509 45.6165 16.6744 45.308 16.3215C45.287 16.2978 45.2461 16.3023 45.232 16.33C44.6761 17.4174 45.1582 18.8768 46.2619 19.4888C47.2312 20.0252 48.7518 20.3413 50.6223 20.5643C50.6422 20.6993 50.6671 20.8336 50.696 20.9669C47.8886 21.3452 45.6959 20.3244 45.3193 20.1341C45.2909 20.12 45.2569 20.1375 45.2535 20.1669C45.1117 21.3299 45.849 22.2643 47.1087 22.4715C48.3763 22.6804 51.0522 22.0503 51.0522 22.0503ZM68.4546 30.7815L67.4791 30.0176C67.0914 30.2432 66.8091 30.6121 66.6936 31.044C66.1071 31.1253 64.5083 30.7719 64.6631 30.5376C66.4157 28.084 65.0754 26.6228 63.4647 26.7041V28.3521C63.4647 28.8811 63.0007 29.3102 62.429 29.3102H61.318C60.52 29.3102 60.0004 30.1085 60.0004 30.1085C60.0004 30.1085 59.4809 29.3097 58.6829 29.3097H57.569C56.9973 29.3097 56.5345 28.8806 56.5345 28.3521V26.7041C54.9237 26.6228 53.5818 28.084 55.3349 30.5376C55.4892 30.7691 53.8455 31.1412 53.0747 31.0469C52.9675 30.9377 52.8393 30.8512 52.6976 30.7925C52.5561 30.7338 52.404 30.7042 52.2507 30.7053C52.1111 30.7053 51.9727 30.7301 51.8423 30.7787C51.8423 30.7787 48.8125 27.9231 48.7569 27.8954L48.7819 27.8378C48.9548 27.516 48.6905 27.166 48.5238 27.1908C48.7172 26.9593 48.7263 25.9453 47.6504 25.711C47.6821 25.9143 47.698 26.3298 47.698 26.3298C47.698 26.3298 46.8677 25.8832 46.4502 26.2688C46.0838 26.7007 46.592 27.4838 46.592 27.4838C46.592 27.4838 46.1678 27.4945 45.9579 27.4765C46.2659 28.5136 47.2993 28.4402 47.5227 28.2353C47.508 28.4001 47.8818 28.6356 48.1977 28.447L48.3372 28.3798C48.3616 28.4125 51.312 31.1875 51.312 31.1875C51.1764 31.3879 51.1118 31.6335 51.1566 31.8954C51.2263 32.3048 51.5689 32.6441 52.0062 32.7321C52.3153 32.7942 52.6057 32.7344 52.8388 32.5983L53.6198 33.3199C53.689 33.3825 53.7831 33.4215 53.8881 33.4147C54.0792 33.4017 54.2227 33.2476 54.2079 33.0709C54.2002 32.9934 54.1631 32.9217 54.1042 32.8705C53.8396 32.6241 53.5745 32.3783 53.309 32.1331C53.955 31.6826 55.158 31.3653 56.1573 31.3653C56.3331 31.3653 56.4154 31.2168 56.3547 31.0717C55.9021 29.9888 56.8753 29.2041 57.8815 29.8426C58.3205 30.1215 58.7663 30.6703 59.1026 31.5855C57.4516 31.9835 55.378 33.0805 54.9583 34.2774C54.7967 34.7392 55.3304 35.3693 55.9786 35.4963C55.9843 35.4975 55.99 35.4976 55.9957 35.4965C56.0014 35.4955 56.0068 35.4933 56.0115 35.4901C56.0165 35.4869 56.0208 35.4828 56.0241 35.478C56.0274 35.4731 56.0297 35.4676 56.0308 35.4619C56.3694 33.6755 58.2995 32.3437 59.3045 32.1179L59.3885 32.3426C58.295 32.858 57.2332 33.9443 56.9309 35.2355C56.792 35.8272 57.4544 36.3601 58.0012 36.5058C58.0284 36.5131 58.0556 36.4945 58.0573 36.4679C58.1611 34.8346 58.8854 33.4475 59.5348 32.8168C59.5524 32.9399 59.566 33.0641 59.5745 33.1883C59.5745 33.1883 58.9103 35.0317 58.9103 36.3765C58.9103 37.002 59.8445 37.4385 59.9823 37.5C60.1547 37.4385 61.0883 37.002 61.0883 36.3765C61.0883 35.0311 60.4235 33.1883 60.4235 33.1883C60.4326 33.0641 60.4462 32.9399 60.4644 32.8168C61.1126 33.448 61.8375 34.8341 61.9413 36.4674C61.9421 36.4771 61.9463 36.4862 61.9529 36.4934C61.9596 36.5006 61.9684 36.5053 61.9781 36.5069C61.9844 36.5079 61.9908 36.5075 61.9969 36.5058C62.5447 36.3601 63.2066 35.8272 63.0682 35.2355C62.7648 33.9443 61.7042 32.858 60.6101 32.3426L60.6941 32.1179C61.6991 32.3437 63.6292 33.6755 63.9678 35.4624C63.9702 35.4738 63.9771 35.4837 63.9868 35.49C63.9966 35.4964 64.0085 35.4986 64.0199 35.4963C64.6677 35.3693 65.2019 34.7392 65.0397 34.2768C64.6211 33.0799 62.547 31.9835 60.8954 31.5855C61.2323 30.6703 61.6781 30.121 62.1171 29.8426C63.1233 29.2041 64.0965 29.9888 63.6433 31.0717C63.5832 31.2168 63.6649 31.3647 63.8413 31.3647C64.9711 31.3647 66.3629 31.7712 66.9142 32.316C67.2658 32.8417 67.9164 33.1782 68.6503 33.1065C69.484 33.0246 70.1646 32.4007 70.2582 31.6301C70.3405 30.9543 69.9894 30.3479 69.4302 30.0176L68.4546 30.7815ZM61.2686 25.8601C61.6157 25.7314 62.1602 25.8352 62.1421 26.3343C62.1375 26.4478 62.2969 26.4478 62.3082 26.3321C62.412 25.5846 61.905 25.3695 61.3735 25.457C61.3077 25.2001 61.2539 24.9754 61.192 24.7529C61.1433 24.5723 61.1251 24.2341 61.335 24.2341C61.4478 24.2341 61.4025 24.5486 61.3917 24.6846C61.382 24.8032 61.4257 24.8755 61.5221 24.8789C61.5828 24.8811 61.6583 24.8043 61.7036 24.7535C62.0071 24.4114 62.078 23.8818 61.7218 23.6261C61.424 23.4115 60.6782 23.5713 60.4729 23.8767C60.4417 23.7616 60.2937 23.5719 60.2233 23.4889C60.1536 23.4081 60.136 23.3528 60.2313 23.2817C60.2766 23.2478 60.4128 23.1123 60.4128 22.974C60.4128 22.8915 60.3481 22.7397 60.1451 22.7397C59.984 22.7397 59.8059 22.8503 59.8059 23.097C59.8063 23.1592 59.8232 23.2201 59.8547 23.2738C59.6816 23.2572 59.507 23.2656 59.3363 23.2986L61.293 28.6435C61.8528 28.3679 62.2629 27.9321 62.2629 27.4646C62.2629 27.066 61.6736 27.1987 61.3872 27.5098C61.2953 27.0039 61.2136 26.5376 61.124 26.0724C61.0996 25.9442 61.1648 25.8985 61.2686 25.8601ZM58.502 22.2298L58.9126 23.3663C58.561 23.4499 57.9949 23.7051 57.9949 24.0433C57.9949 24.4938 58.7958 24.7868 59.2586 24.7518C59.2472 24.8007 59.2481 24.8517 59.2613 24.9001C59.2745 24.9486 59.2994 24.9931 59.334 25.0296C59.1661 25.0296 58.8491 25.1075 58.7447 25.2193C58.4991 24.9918 58.1152 24.9088 57.9331 25.0471C57.7493 25.1871 57.7437 25.4231 57.9354 25.6907C58.0687 25.8759 58.1191 26.0583 57.9694 26.2722C58.5269 26.2722 58.321 25.5507 58.54 25.5507C58.5116 25.6907 58.5286 25.8527 58.5922 26.0323C58.6341 26.152 58.6341 26.2367 58.5621 26.3518C58.3823 26.6381 58.1027 27.2958 58.1401 27.8909C57.9575 27.8897 57.8645 27.8457 57.9286 27.5967C57.953 27.5041 57.8951 27.4381 57.8191 27.5516C57.7352 27.678 57.6943 27.8931 57.6943 27.9846C57.6943 28.5142 58.329 28.6209 58.5706 28.5091C59.2705 29.1838 60.6459 29.0037 61.1058 28.7773L58.6863 22.1649C58.637 22.0401 58.4594 22.1 58.5031 22.2293L58.502 22.2298ZM58.418 27.6763C58.3681 27.4042 58.7481 26.9175 59.2325 26.4478C59.1293 26.7538 59.1933 27.2811 59.3953 27.4629C59.0442 27.4629 58.6273 27.5284 58.418 27.6763Z" fill="#CCA352"/>
</svg>
