<svg width="160" height="160" viewBox="0 0 160 160" fill="none" xmlns="http://www.w3.org/2000/svg">
<rect width="160" height="160" fill="#F2F2F2"/>
<g clip-path="url(#clip0_594_686)">
<path d="M130.323 117.645V112.903H120.705L122.523 52.9032H130.323V39.3548C130.323 36.1535 127.717 33.5484 124.516 33.5484H122.581V25.8065H118.71V33.5484H114.839V20H45.1614V33.5484H41.2904V25.8065H37.4194V33.5484H35.4839C32.2826 33.5484 29.6775 36.1535 29.6775 39.3548V52.9032H37.4755L39.293 112.903H29.6775V117.645H19.9355V135.258H29.6775V140H45.1614V136.129H114.839V140H130.323V135.258H140.065V117.645H130.323ZM29.6775 131.387H23.8065V121.516H29.6775V131.387ZM49.0323 23.871H110.968V33.5484H49.0323V23.871ZM33.5485 49.0323V39.3548C33.5485 38.2884 34.4155 37.4194 35.4839 37.4194H45.1614H114.839H124.516C125.585 37.4194 126.452 38.2884 126.452 39.3548V49.0323H33.5485ZM41.2904 136.129H33.5485V116.774H41.2904V136.129ZM116.834 112.903H114.839V132.258H45.1614V112.903H43.1697L41.3523 52.9032H118.652L116.834 112.903ZM126.452 136.129H118.71V116.774H126.452V136.129ZM136.194 131.387H130.323V121.516H136.194V131.387Z" fill="#BF9C56"/>
<path d="M96.7299 94.089L81.5998 61.0266C81.3136 60.4013 80.6887 60 80.0004 60C79.3122 60 78.6873 60.4013 78.401 61.0266L63.271 94.089C60.6659 99.7818 61.1312 106.325 64.516 111.591C71.7542 122.855 88.3132 122.751 95.485 111.591C98.8682 106.327 99.3341 99.7798 96.7299 94.089ZM80.0004 65.9836L93.5311 95.5511V95.5512C93.8774 96.308 94.1553 97.0836 94.3677 97.87C85.5866 95.8404 77.6254 91.074 71.6464 84.2391L80.0004 65.9836ZM67.4755 109.692C64.7417 105.437 64.3653 100.153 66.4684 95.5542C70.9634 104.092 78.2423 110.865 87.0893 114.728C80.4873 118.273 71.8094 116.435 67.4755 109.692ZM92.5254 109.692C91.9128 110.645 91.203 111.511 90.4145 112.283C80.5605 108.591 72.5986 101.05 68.3705 91.3976L70.0544 87.718C76.6928 94.8115 85.3757 99.6666 94.8775 101.576C94.9035 104.405 94.1126 107.222 92.5254 109.692Z" fill="#BF9C56"/>
</g>
<defs>
<clipPath id="clip0_594_686">
<rect width="120" height="120" fill="white" transform="translate(20 20)"/>
</clipPath>
</defs>
</svg>
