<svg width="120" height="120" viewBox="0 0 120 120" fill="none" xmlns="http://www.w3.org/2000/svg">
<g clip-path="url(#clip0_621_358)">
<path d="M59.9999 57.4795C53.5042 57.4795 48.2197 62.7642 48.2197 69.2596C48.2197 75.7551 53.5044 81.0398 59.9999 81.0398C61.5219 81.0398 63.0074 80.7508 64.4155 80.181C65.3614 79.7983 65.818 78.7211 65.4352 77.7752C65.0525 76.8292 63.9746 76.3727 63.0294 76.7554C62.0638 77.1461 61.0445 77.3444 59.9999 77.3444C55.5418 77.3444 51.9151 73.7174 51.9151 69.2596C51.9151 64.8016 55.5421 61.1749 59.9999 61.1749C64.4577 61.1749 68.0846 64.8018 68.0846 69.2596C68.0846 70.4153 67.8437 71.534 67.3686 72.5847C66.9484 73.5147 67.3613 74.6092 68.2909 75.0295C69.2211 75.4499 70.3154 75.037 70.7356 74.1072C71.4287 72.5749 71.7798 70.9441 71.7798 69.2596C71.78 62.7639 66.4953 57.4795 59.9999 57.4795Z" fill="#CCA352"/>
<path d="M79.1251 97.5C74.7828 97.5 71.2501 101.033 71.2501 105.375C71.2501 109.717 74.7828 113.25 79.1251 113.25C83.4674 113.25 87.0001 109.718 87.0001 105.375C87.0004 101.032 83.4677 97.5 79.1251 97.5ZM79.1251 109.558C76.8183 109.558 74.9416 107.682 74.9416 105.375C74.9416 103.068 76.8183 101.191 79.1251 101.191C81.432 101.191 83.3087 103.068 83.3087 105.375C83.3087 107.682 81.4322 109.558 79.1251 109.558Z" fill="#CCA352"/>
<path d="M119.453 45.8826L110.629 37.157C110.279 36.8104 109.804 36.6159 109.308 36.6159C108.812 36.6159 108.337 36.8104 107.987 37.157L100.836 44.2281C100.085 43.8707 99.2578 43.6759 98.3991 43.6759C97.4229 43.6759 96.486 43.9234 95.6564 44.3821L89.0117 39.3081C88.1945 38.6845 87.0218 38.8338 86.3909 39.6412C85.7602 40.4491 85.9112 41.6092 86.7277 42.2329L93.1745 47.1559C92.6932 48.3339 92.6398 49.6961 93.0202 50.9099L91.1367 52.4814L76.2145 41.0866V34.2051L80.7828 37.6935C81.5996 38.317 82.7727 38.1679 83.4036 37.3605C84.0343 36.5528 83.8834 35.3927 83.0669 34.7688L76.2148 29.5361V25.6378C76.2148 24.6173 75.3781 23.7902 74.3464 23.7902H71.9745V21.7804H79.4883C80.1 21.7804 80.6729 21.4844 81.0222 20.988C81.3716 20.4916 81.4529 19.8574 81.2402 19.2904L74.4557 1.20515C74.1838 0.480702 73.4854 0 72.7037 0H47.2957C46.5228 0 45.83 0.47039 45.5522 1.18336L43.578 6.24913C43.2068 7.20139 43.6865 8.27084 44.6495 8.63764C45.6127 9.00514 46.6939 8.5303 47.0648 7.57803L48.5784 3.69538H71.4045L76.8025 18.0846H70.1064H49.8942H42.9701L44.1845 14.9686C44.5556 14.0163 44.0759 12.9468 43.113 12.5801C42.15 12.2126 41.0685 12.6874 40.6976 13.6397L38.5041 19.2679C38.2828 19.8363 38.3586 20.4759 38.707 20.9779C39.0552 21.48 39.6318 21.78 40.2476 21.78H48.0254V23.7897H45.6535C44.6215 23.7897 43.7851 24.6171 43.7851 25.6373V29.5356L24.3434 44.3816C23.5139 43.9232 22.5775 43.6755 21.6008 43.6755C20.7419 43.6755 19.9152 43.87 19.1634 44.2276L12.0131 37.1568C11.6628 36.8102 11.1876 36.6156 10.692 36.6156C10.1965 36.6156 9.72127 36.8102 9.37097 37.1568L0.547433 45.8823C0.123191 46.3016 -0.0713924 46.8969 0.0238845 47.4824L2.17757 60.7117C0.667359 62.8822 0.883273 65.8818 2.83384 67.8104C3.89848 68.8632 5.31459 69.4433 6.8203 69.4433C7.39907 69.4433 7.96362 69.3561 8.50068 69.1909L10.1107 71.0778C9.47194 71.9977 9.12567 73.0838 9.12567 74.2238C9.12567 75.7131 9.71203 77.1134 10.7769 78.166C11.8415 79.2191 13.2577 79.7989 14.7634 79.7991C15.5898 79.7991 16.3861 79.6189 17.1152 79.2873L18.5171 80.9305C17.7954 81.8865 17.3996 83.0382 17.3996 84.2532C17.3996 85.7424 17.9859 87.1426 19.0508 88.1954C20.1155 89.2484 21.5316 89.8285 23.0373 89.8285C23.9403 89.8285 24.8096 89.6159 25.5915 89.2217L26.9235 90.7829C26.1143 91.7712 25.673 92.9928 25.673 94.2821C25.673 95.7713 26.2594 97.1715 27.3243 98.2243C28.3891 99.2771 29.805 99.8574 31.311 99.8574C32.5356 99.8574 33.6971 99.4679 34.6622 98.7584V105.949C34.6622 106.97 35.4989 107.797 36.5306 107.797C37.5623 107.797 38.3989 106.969 38.3989 105.949V94.3915V83.8484V76.1806V70.3775C38.3989 62.0427 44.0937 54.4724 52.1515 52.0586C62.1094 49.0753 76.2404 53.2572 80.268 63.4082C81.1452 65.6185 81.6005 68.0033 81.6005 70.3782V76.1811V83.8489V90.9594C80.7482 90.8105 79.8796 90.7365 79.014 90.7365C70.8556 90.7365 64.2177 97.3004 64.2177 105.368C64.2177 108.5 65.2721 111.575 67.1454 114.095C67.7299 114.882 68.4009 115.598 69.1349 116.25C69.155 116.268 69.174 116.287 69.1944 116.305H38.3989V113.34C38.3989 112.32 37.5623 111.493 36.5306 111.493C35.4986 111.493 34.6622 112.32 34.6622 113.34V118.152C34.6622 119.173 35.4989 120 36.5306 120H79.0145H83.4693C84.337 120 85.0641 119.414 85.2748 118.622C90.3122 116.285 93.8109 111.225 93.8109 105.368C93.8109 102.955 93.2134 100.679 92.1627 98.67C92.3417 98.5318 92.514 98.3846 92.6758 98.2247C93.7407 97.1719 94.3271 95.7715 94.3271 94.2826C94.3271 92.993 93.8858 91.7717 93.0766 90.7833L94.4086 89.2222C95.1905 89.6164 96.0596 89.829 96.9628 89.829C98.4688 89.829 99.8847 89.2491 100.949 88.1958C102.95 86.2173 103.123 83.113 101.482 80.9316L102.885 79.288C103.614 79.6196 104.41 79.7999 105.237 79.7999C106.743 79.7999 108.159 79.22 109.223 78.167C110.288 77.1142 110.874 75.7138 110.875 74.2245C110.875 73.0845 110.528 71.9982 109.89 71.0785L111.5 69.1914C112.037 69.3564 112.602 69.4438 113.18 69.4438C114.686 69.4438 116.102 68.8639 117.167 67.8109C118.231 66.7578 118.818 65.3577 118.818 63.8687C118.818 62.7231 118.468 61.6323 117.823 60.7096L119.976 47.4831C120.072 46.8969 119.877 46.3019 119.453 45.8826ZM51.7623 21.78H68.2376V23.7897H51.7623V21.78ZM47.5213 41.9943L47.5215 30.4438V27.4856H49.8935H70.1057H72.4776V42.3972H47.5215L47.5213 41.9943ZM43.7849 34.2049V41.0866L28.8627 52.4816L26.9832 50.9132C27.1501 50.3821 27.2385 49.8236 27.2385 49.2512C27.2385 48.5205 27.0956 47.8119 26.8258 47.1548L43.7849 34.2049ZM10.6918 41.0765L16.293 46.6157L5.41817 57.3697L3.86482 47.8281L10.6918 41.0765ZM8.16413 65.1974L8.162 65.1992C8.09659 65.2637 8.016 65.3293 7.91528 65.3999C7.8994 65.4111 7.88494 65.4242 7.8693 65.4357C7.56071 65.6385 7.1988 65.7479 6.82006 65.7479C6.31216 65.7479 5.83483 65.5522 5.47576 65.1974C4.73464 64.4642 4.73464 63.2718 5.47576 62.5386L20.2569 47.9216C20.616 47.5666 21.0933 47.3711 21.601 47.3711C22.1087 47.3711 22.5863 47.5668 22.9453 47.9219C22.947 47.9235 22.9486 47.9256 22.9503 47.9273C22.9631 47.9416 22.9742 47.957 22.9875 47.9708C23.5999 48.6184 23.6684 49.6124 23.1503 50.3336C23.0783 50.4339 23.0112 50.5147 22.9451 50.5799L8.16413 65.1974ZM11.5685 67.0567L24.825 53.9474L26.1641 55.0647L12.6983 68.3809L11.5685 67.0567ZM16.1397 75.5213L16.1072 75.5535C15.7481 75.9085 15.2706 76.104 14.7629 76.104C14.2552 76.104 13.7776 75.9083 13.4186 75.5532C13.0595 75.1981 12.8619 74.7261 12.8619 74.2238C12.8619 73.7218 13.0593 73.2498 13.4186 72.8945L30.398 56.1036C30.7571 55.7486 31.2344 55.5533 31.7421 55.5533C32.2497 55.5533 32.7273 55.7488 33.0864 56.1039C33.4454 56.459 33.6431 56.931 33.6431 57.4333C33.6431 57.8622 33.4976 58.2683 33.2319 58.5993C33.231 58.6004 33.2295 58.6016 33.2283 58.6032C33.2115 58.6241 33.1954 58.6424 33.1793 58.6611C33.1492 58.6956 33.1191 58.73 33.0861 58.7626L16.1397 75.5213ZM32.6548 95.6112C32.2957 95.9663 31.8184 96.1618 31.3107 96.1618C30.8028 96.1618 30.3255 95.9661 29.9664 95.611C29.6074 95.2559 29.4097 94.7839 29.4097 94.2818C29.4097 93.7798 29.6074 93.3076 29.9664 92.9525L34.662 88.3091V93.6263L32.6548 95.6112ZM34.662 83.0832L29.5536 88.1351L28.4235 86.8109L34.662 80.6417V83.0832ZM34.662 70.3775V75.4154L24.5669 85.3984L24.3809 85.5821C24.0218 85.9372 23.5442 86.1326 23.0366 86.1326C22.5289 86.1326 22.0516 85.9369 21.6923 85.5819C21.3332 85.2268 21.1355 84.7548 21.1355 84.2527C21.1355 83.7507 21.333 83.2784 21.6923 82.9234L34.6634 70.0963C34.6627 70.1903 34.662 70.284 34.662 70.3775ZM35.5953 63.9493L21.1258 78.2581L19.996 76.9339L27.3276 69.6838L34.813 62.2815L35.8499 63.1466C35.7601 63.4119 35.6754 63.6796 35.5953 63.9493ZM37.3994 59.604L37.0472 59.3101C37.2622 58.7153 37.3802 58.0839 37.3802 57.433C37.3802 55.9438 36.7939 54.5434 35.7288 53.4908C35.4155 53.181 35.0682 52.9173 34.7009 52.6919L44.2169 45.4253C44.5597 45.8324 45.0759 46.0919 45.6535 46.0919H74.3464C74.9242 46.0919 75.4405 45.8324 75.7832 45.4253L85.2992 52.6919C84.9314 52.9171 84.5847 53.1805 84.2711 53.4908C82.6829 55.0616 82.2487 57.3421 82.9557 59.3078L82.6009 59.6038C73.9267 43.6487 46.073 43.6476 37.3994 59.604ZM89.0065 110.053C88.3242 111.471 87.3309 112.737 86.1152 113.746C84.8596 114.788 83.3721 115.551 81.7806 115.957C80.8781 116.187 79.9464 116.304 79.0143 116.304C72.9161 116.304 67.9548 111.398 67.9548 105.368C67.9548 99.3375 72.9161 94.4314 79.0143 94.4314C82.1971 94.4314 85.2829 95.8615 87.3757 98.2217C89.1129 100.181 90.0735 102.767 90.0735 105.368C90.0735 106.984 89.709 108.594 89.0065 110.053ZM90.0356 95.6086C88.7157 94.1476 87.1235 92.9703 85.3376 92.1359V88.3093L90.0332 92.9527C90.3923 93.3078 90.59 93.7798 90.59 94.2821C90.5897 94.7827 90.3932 95.2538 90.0356 95.6086ZM90.4463 88.1351L85.3379 83.0834V80.6417L91.5764 86.8109L90.4463 88.1351ZM98.3071 85.5823C97.9481 85.9374 97.4705 86.1329 96.9628 86.1329C96.4549 86.1329 95.9776 85.9372 95.6185 85.5823L85.3376 75.4156V70.378C85.3376 70.2845 85.3372 70.1905 85.336 70.097L98.3071 82.9238C99.0483 83.6565 99.0483 84.8494 98.3071 85.5823ZM98.8738 78.2581L84.4043 63.9496C84.3242 63.6798 84.2396 63.4117 84.1497 63.1464L85.1867 62.2813L100.004 76.9339L98.8738 78.2581ZM106.581 75.5535C106.222 75.9085 105.744 76.104 105.237 76.104C104.729 76.104 104.252 75.9083 103.892 75.5535L86.9133 58.7629C86.8775 58.7275 86.8448 58.69 86.8123 58.6525C86.7988 58.6368 86.786 58.622 86.7718 58.6044C86.7718 58.6044 86.7699 58.6025 86.7689 58.6011C86.1766 57.8638 86.224 56.7854 86.9133 56.1041C87.2723 55.749 87.7499 55.5536 88.2576 55.5536C88.7652 55.5536 89.2428 55.749 89.6019 56.1041L106.581 72.8949C106.94 73.25 107.138 73.722 107.138 74.2241C107.138 74.7261 106.94 75.1981 106.581 75.5535ZM107.301 68.3809L93.8355 55.0647L95.1746 53.9474L101.803 60.5019L108.431 67.0564L107.301 68.3809ZM114.524 65.1974C114.165 65.5525 113.688 65.7479 113.18 65.7479C112.801 65.7479 112.439 65.6387 112.13 65.4357C112.115 65.424 112.1 65.4109 112.084 65.3996C111.982 65.3286 111.901 65.2628 111.835 65.1974L97.0543 50.5804C97.0396 50.5658 97.0273 50.5504 97.0133 50.5356C96.9602 50.4784 96.9064 50.4142 96.8491 50.3343C96.3312 49.6124 96.3995 48.6184 97.0114 47.9708C97.0207 47.9612 97.028 47.9505 97.037 47.9406C97.0429 47.9348 97.0479 47.928 97.0538 47.9221C97.4129 47.567 97.8905 47.3716 98.3981 47.3716C98.9058 47.3716 99.3834 47.5673 99.7425 47.9221L114.523 62.5389C115.265 63.272 115.265 64.4642 114.524 65.1974ZM114.582 57.3697L103.707 46.6157L109.308 41.0765L116.135 47.8276L114.582 57.3697Z" fill="#CCA352"/>
</g>
<defs>
<clipPath id="clip0_621_358">
<rect width="120" height="120" fill="white"/>
</clipPath>
</defs>
</svg>
