<svg width="120" height="120" viewBox="0 0 120 120" fill="none" xmlns="http://www.w3.org/2000/svg">
<g clip-path="url(#clip0_621_327)">
<path d="M37.4997 54.9742C38.8805 54.9742 39.9999 53.8548 39.9999 52.4739C39.9999 51.093 38.8805 49.9736 37.4997 49.9736C36.1188 49.9736 34.9994 51.093 34.9994 52.4739C34.9994 53.8548 36.1188 54.9742 37.4997 54.9742Z" fill="#CCA352"/>
<path d="M52.5002 54.9742C53.881 54.9742 55.0004 53.8548 55.0004 52.4739C55.0004 51.093 53.881 49.9736 52.5002 49.9736C51.1193 49.9736 49.9999 51.093 49.9999 52.4739C49.9999 53.8548 51.1193 54.9742 52.5002 54.9742Z" fill="#CCA352"/>
<path d="M67.4999 54.9742C68.8808 54.9742 70.0002 53.8548 70.0002 52.4739C70.0002 51.093 68.8808 49.9736 67.4999 49.9736C66.119 49.9736 64.9996 51.093 64.9996 52.4739C64.9996 53.8548 66.119 54.9742 67.4999 54.9742Z" fill="#CCA352"/>
<path d="M22.5 69.9729C23.8805 69.9729 24.9997 68.8538 24.9997 67.4733C24.9997 66.0928 23.8805 64.9736 22.5 64.9736C21.1195 64.9736 20.0004 66.0928 20.0004 67.4733C20.0004 68.8538 21.1195 69.9729 22.5 69.9729Z" fill="#CCA352"/>
<path d="M37.4996 69.9729C38.8802 69.9729 39.9993 68.8538 39.9993 67.4733C39.9993 66.0928 38.8802 64.9736 37.4996 64.9736C36.1191 64.9736 35 66.0928 35 67.4733C35 68.8538 36.1191 69.9729 37.4996 69.9729Z" fill="#CCA352"/>
<path d="M52.5001 69.9729C53.8807 69.9729 54.9998 68.8538 54.9998 67.4733C54.9998 66.0928 53.8807 64.9736 52.5001 64.9736C51.1196 64.9736 50.0005 66.0928 50.0005 67.4733C50.0005 68.8538 51.1196 69.9729 52.5001 69.9729Z" fill="#CCA352"/>
<path d="M67.4999 69.9729C68.8804 69.9729 69.9995 68.8538 69.9995 67.4733C69.9995 66.0928 68.8804 64.9736 67.4999 64.9736C66.1194 64.9736 65.0002 66.0928 65.0002 67.4733C65.0002 68.8538 66.1194 69.9729 67.4999 69.9729Z" fill="#CCA352"/>
<path d="M97.5001 69.9729C98.8806 69.9729 99.9998 68.8538 99.9998 67.4733C99.9998 66.0928 98.8806 64.9736 97.5001 64.9736C96.1196 64.9736 95.0005 66.0928 95.0005 67.4733C95.0005 68.8538 96.1196 69.9729 97.5001 69.9729Z" fill="#CCA352"/>
<path d="M82.4995 54.9742C83.8804 54.9742 84.9998 53.8548 84.9998 52.4739C84.9998 51.093 83.8804 49.9736 82.4995 49.9736C81.1187 49.9736 79.9993 51.093 79.9993 52.4739C79.9993 53.8548 81.1187 54.9742 82.4995 54.9742Z" fill="#CCA352"/>
<path d="M97.5 54.9742C98.8809 54.9742 100 53.8548 100 52.4739C100 51.093 98.8809 49.9736 97.5 49.9736C96.1192 49.9736 94.9998 51.093 94.9998 52.4739C94.9998 53.8548 96.1192 54.9742 97.5 54.9742Z" fill="#CCA352"/>
<path d="M22.5 84.9742C23.8809 84.9742 25.0003 83.8548 25.0003 82.4739C25.0003 81.093 23.8809 79.9736 22.5 79.9736C21.1192 79.9736 19.9998 81.093 19.9998 82.4739C19.9998 83.8548 21.1192 84.9742 22.5 84.9742Z" fill="#CCA352"/>
<path d="M37.4997 84.9742C38.8805 84.9742 39.9999 83.8548 39.9999 82.4739C39.9999 81.093 38.8805 79.9736 37.4997 79.9736C36.1188 79.9736 34.9994 81.093 34.9994 82.4739C34.9994 83.8548 36.1188 84.9742 37.4997 84.9742Z" fill="#CCA352"/>
<path d="M52.5002 84.9742C53.881 84.9742 55.0004 83.8548 55.0004 82.4739C55.0004 81.093 53.881 79.9736 52.5002 79.9736C51.1193 79.9736 49.9999 81.093 49.9999 82.4739C49.9999 83.8548 51.1193 84.9742 52.5002 84.9742Z" fill="#CCA352"/>
<path d="M67.4999 84.9742C68.8808 84.9742 70.0002 83.8548 70.0002 82.4739C70.0002 81.093 68.8808 79.9736 67.4999 79.9736C66.119 79.9736 64.9996 81.093 64.9996 82.4739C64.9996 83.8548 66.119 84.9742 67.4999 84.9742Z" fill="#CCA352"/>
<path d="M82.4995 84.9742C83.8804 84.9742 84.9998 83.8548 84.9998 82.4739C84.9998 81.093 83.8804 79.9736 82.4995 79.9736C81.1187 79.9736 79.9993 81.093 79.9993 82.4739C79.9993 83.8548 81.1187 84.9742 82.4995 84.9742Z" fill="#CCA352"/>
<path d="M97.5 84.9742C98.8809 84.9742 100 83.8548 100 82.4739C100 81.093 98.8809 79.9736 97.5 79.9736C96.1192 79.9736 94.9998 81.093 94.9998 82.4739C94.9998 83.8548 96.1192 84.9742 97.5 84.9742Z" fill="#CCA352"/>
<path d="M22.5 99.9732C23.8809 99.9732 25.0003 98.8538 25.0003 97.4729C25.0003 96.0921 23.8809 94.9727 22.5 94.9727C21.1192 94.9727 19.9998 96.0921 19.9998 97.4729C19.9998 98.8538 21.1192 99.9732 22.5 99.9732Z" fill="#CCA352"/>
<path d="M37.4997 99.9732C38.8805 99.9732 39.9999 98.8538 39.9999 97.4729C39.9999 96.0921 38.8805 94.9727 37.4997 94.9727C36.1188 94.9727 34.9994 96.0921 34.9994 97.4729C34.9994 98.8538 36.1188 99.9732 37.4997 99.9732Z" fill="#CCA352"/>
<path d="M52.5002 99.9732C53.881 99.9732 55.0004 98.8538 55.0004 97.4729C55.0004 96.0921 53.881 94.9727 52.5002 94.9727C51.1193 94.9727 49.9999 96.0921 49.9999 97.4729C49.9999 98.8538 51.1193 99.9732 52.5002 99.9732Z" fill="#CCA352"/>
<path d="M67.4999 99.9732C68.8808 99.9732 70.0002 98.8538 70.0002 97.4729C70.0002 96.0921 68.8808 94.9727 67.4999 94.9727C66.119 94.9727 64.9996 96.0921 64.9996 97.4729C64.9996 98.8538 66.119 99.9732 67.4999 99.9732Z" fill="#CCA352"/>
<path d="M82.4997 74.9731C86.6426 74.9731 89.9999 71.6157 89.9999 67.4729C89.9999 63.33 86.6426 59.9727 82.4997 59.9727C78.3568 59.9727 74.9995 63.33 74.9995 67.4729C74.9995 71.6157 78.3568 74.9731 82.4997 74.9731ZM82.4997 64.9732C83.8794 64.9732 85 66.0938 85 67.4729C85 68.8519 83.8794 69.9725 82.4997 69.9725C81.12 69.9725 80.0001 68.8519 80.0001 67.4729C80.0001 66.0938 81.1206 64.9732 82.4997 64.9732Z" fill="#CCA352"/>
<path d="M110 10.0259H105V7.52559C105 3.38398 101.641 0.0253906 97.5 0.0253906C93.3572 0.0253906 89.9998 3.38335 89.9998 7.52559V10.0259H29.9995V7.52559C29.9995 3.38398 26.6403 0.0253906 22.4993 0.0253906C18.3565 0.0253906 14.9991 3.38335 14.9991 7.52559V10.0259H9.99922C4.47728 10.0259 0 14.5031 0 20.0257V29.9728V34.9728V109.973C0 115.495 4.47728 119.973 9.99984 119.973H110C115.522 119.973 119.999 115.495 119.999 109.973V34.9734V29.9735V20.0257C120 14.5031 115.523 10.0259 110 10.0259ZM94.9997 15.0258V10.0259V7.52559C94.9997 6.14463 96.1178 5.02531 97.5 5.02531C98.8791 5.02531 99.9997 6.14463 99.9997 7.52559V10.0259V15.0258V17.5254C99.9997 18.9058 98.8791 20.0257 97.5 20.0257C96.1184 20.0257 94.9997 18.9064 94.9997 17.5254V15.0258ZM19.9997 15.0258V10.0259V7.52559C19.9997 6.14463 21.1177 5.02531 22.5 5.02531C23.8797 5.02531 25.0002 6.14463 25.0002 7.52559V10.0259V15.0258V17.5254C25.0002 18.9058 23.8797 20.0257 22.5 20.0257C21.1184 20.0257 19.9997 18.9064 19.9997 17.5254V15.0258ZM115 109.973C115 112.733 112.764 114.973 110 114.973H9.99984C7.23605 114.973 4.99992 112.733 4.99992 109.973V34.9734H115V109.973ZM115 29.9735H4.99992V20.0257C4.99992 17.2632 7.23605 15.0258 9.99984 15.0258H14.9998V17.5254C14.9998 21.667 18.3565 25.0256 22.5 25.0256C26.6409 25.0256 30.0002 21.6677 30.0002 17.5254V15.0258H90.0005V17.5254C90.0005 21.667 93.3572 25.0256 97.5007 25.0256C101.641 25.0256 105.001 21.6677 105.001 17.5254V15.0258H110.001C112.765 15.0258 115.001 17.2632 115.001 20.0257V29.9735H115Z" fill="#CCA352"/>
</g>
<defs>
<clipPath id="clip0_621_327">
<rect width="120" height="120" fill="white"/>
</clipPath>
</defs>
</svg>
