<svg width="120" height="120" viewBox="0 0 120 120" fill="none" xmlns="http://www.w3.org/2000/svg">
<g clip-path="url(#clip0_594_564)">
<path d="M120 54.1935V50.3226H116.129V13.5484H110.323V9.67742C110.323 4.34129 105.981 0 100.645 0H96.7742C91.4381 0 87.0968 4.34129 87.0968 9.67742V29.0323H75.4839V32.9032H42.5806C37.2445 32.9032 32.9032 37.2445 32.9032 42.5806V46.4516H25.1613V51.8729C23.1252 52.5445 21.1839 53.4329 19.3548 54.4974V32.9032H23.2258V21.2903H19.3548V11.6129H3.87097V21.2903H0V32.9032H3.87097V73.5484H1.93548V89.0323H3.87097V116.129H0V120H120V116.129H116.129V54.1935H120ZM3.87097 25.1613H5.80645H7.74194H11.6129V21.2903H7.74194V15.4839H15.4839V25.1613H19.3548V29.0323H15.4839V57.1761C12.3426 59.7097 9.70452 62.8355 7.74194 66.3697V32.9032H11.6129V29.0323H7.74194H5.80645H3.87097V25.1613ZM15.4839 106.452V116.129H7.74194V96.2226C9.99484 100.293 13.1206 103.781 16.8561 106.452H15.4839ZM32.9032 116.129H19.3548V108.075C23.4135 110.429 28.0316 111.865 32.9032 112.173V116.129ZM61.9355 116.129H36.7742V112.173C47.46 111.499 56.8974 105.321 61.9355 96.2226V116.129ZM63.871 85.1613H56.129V89.0323H60.811C57.6155 99.7645 47.9884 107.495 36.7742 108.302V92.9032H32.9032V108.302C21.689 107.495 12.06 99.7645 8.86645 89.0323H52.2581V85.1613H5.80645V77.4193H13.5484V73.5484H8.88194C11.5277 64.7303 18.6542 57.6465 27.6116 55.1729L29.0323 54.7819V50.3226H40.6452V54.7819L42.0658 55.1729C51.0232 57.6465 58.1497 64.7303 60.7955 73.5484H17.4194V77.4193H63.871V85.1613ZM75.4839 73.5484H71.6129V77.4193H75.4839V116.129H65.8064V89.0323H67.7419V73.5484H64.8135C62.6787 65.3071 57.1394 58.2852 49.7826 54.1935H75.4839V73.5484ZM75.4839 40.6452H71.6129V44.5161H75.4839V50.3226H44.5161V46.4516H36.7742V42.5806C36.7742 39.3794 39.3794 36.7742 42.5806 36.7742H75.4839V40.6452ZM100.645 116.129H79.3548V77.4193H100.645V116.129ZM100.645 50.3226H96.7742V54.1935H100.645V73.5484H79.3548V44.5161H100.645V50.3226ZM100.645 40.6452H79.3548V32.9032H100.645V40.6452ZM100.645 29.0323H90.9677V9.67742C90.9677 6.47613 93.5729 3.87097 96.7742 3.87097H100.645C103.846 3.87097 106.452 6.47613 106.452 9.67742V13.5484H100.645V29.0323ZM112.258 116.129H104.516V54.1935H112.258V116.129ZM112.258 50.3226H104.516V17.4194H112.258V50.3226Z" fill="#BF9C56"/>
<path d="M71.6129 58.0645H67.7419V61.9354H71.6129V58.0645Z" fill="#BF9C56"/>
<path d="M63.871 58.0645H60V61.9354H63.871V58.0645Z" fill="#BF9C56"/>
<path d="M96.7742 81.2905H92.9032V85.1615H96.7742V81.2905Z" fill="#BF9C56"/>
<path d="M89.0322 81.2905H85.1613V85.1615H89.0322V81.2905Z" fill="#BF9C56"/>
<path d="M36.7742 54.1934H32.9032V58.0643H36.7742V54.1934Z" fill="#BF9C56"/>
</g>
<defs>
<clipPath id="clip0_594_564">
<rect width="120" height="120" fill="white"/>
</clipPath>
</defs>
</svg>
