<svg width="120" height="120" viewBox="0 0 120 120" fill="none" xmlns="http://www.w3.org/2000/svg">
<g clip-path="url(#clip0_594_540)">
<path d="M120 19.3548V15.4839H116.129V0H15.4839V15.4839H11.6129V19.3548H15.4839V30.9677H3.87097V46.4516H0V50.3226H3.87097V116.129H0V120H120V116.129H116.129V19.3548H120ZM77.4193 3.87097H92.9032V7.74194H77.4193V3.87097ZM77.4193 11.6129H92.9032V15.4839H77.4193V11.6129ZM58.0645 3.87097H73.5484V7.74194H58.0645V3.87097ZM58.0645 11.6129H73.5484V15.4839H58.0645V11.6129ZM38.7097 3.87097H54.1935V7.74194H38.7097V3.87097ZM38.7097 11.6129H54.1935V15.4839H38.7097V11.6129ZM19.3548 3.87097H34.8387V7.74194H19.3548V3.87097ZM19.3548 11.6129H34.8387V15.4839H19.3548V11.6129ZM7.74194 34.8387H19.3548V38.7097H7.74194V34.8387ZM7.74194 42.5806H19.3548V46.4516H7.74194V42.5806ZM52.2581 69.6774H48.3871V73.5484H52.2581V92.9032H48.3871V96.7742H52.2581V116.129H7.74194V96.7742H44.5161V92.9032H7.74194V73.5484H44.5161V69.6774H7.74194V50.3226H52.2581V69.6774ZM36.7742 42.5806V46.4516H23.2258V42.5806H36.7742ZM23.2258 38.7097V34.8387H36.7742V38.7097H23.2258ZM52.2581 46.4516H40.6452V42.5806H52.2581V46.4516ZM52.2581 38.7097H40.6452V34.8387H52.2581V38.7097ZM89.0323 116.129H56.129V80.6245L89.0323 97.9413V116.129ZM56.129 76.2523V65.1426L63.871 69.2168V80.3264L56.129 76.2523ZM67.7419 82.3626V71.2529L77.4193 76.3471V87.4568L67.7419 82.3626ZM89.0323 93.569L81.2903 89.4948V78.3852L89.0323 82.4594V93.569ZM104.516 116.129H92.9032V112.258H104.516V116.129ZM104.516 108.387H92.9032V104.516H104.516V108.387ZM104.516 100.645H92.9032V96.7742H104.516V100.645ZM112.258 116.129H108.387V81.2903H104.516V92.9032H92.9032V80.1213L56.129 60.7664V50.3226H60V46.4516H56.129V30.9677H19.3548V19.3548H112.258V116.129ZM112.258 15.4839H96.7742V11.6129H112.258V15.4839ZM112.258 7.74194H96.7742V3.87097H112.258V7.74194Z" fill="#BF9C56"/>
<path d="M108.387 23.2256H104.516V27.0966H108.387V23.2256Z" fill="#BF9C56"/>
<path d="M100.645 23.2256H96.7742V27.0966H100.645V23.2256Z" fill="#BF9C56"/>
<path d="M108.387 30.9678H104.516V34.8387H108.387V30.9678Z" fill="#BF9C56"/>
<path d="M48.3871 54.1934H44.5161V58.0643H48.3871V54.1934Z" fill="#BF9C56"/>
<path d="M40.6451 54.1934H36.7742V58.0643H40.6451V54.1934Z" fill="#BF9C56"/>
<path d="M48.3871 61.9355H44.5161V65.8065H48.3871V61.9355Z" fill="#BF9C56"/>
</g>
<defs>
<clipPath id="clip0_594_540">
<rect width="120" height="120" fill="white"/>
</clipPath>
</defs>
</svg>
