<svg width="50" height="50" viewBox="0 0 50 50" fill="none" xmlns="http://www.w3.org/2000/svg">
<rect width="50" height="50" fill="white"/>
<path fill-rule="evenodd" clip-rule="evenodd" d="M15 18.5713C15.171 26.5919 19.2651 31.4284 26.0102 31.4284H26.4057V26.8342C28.8642 27.0876 30.7028 28.9826 31.4511 31.4284H35C34.649 30.0521 34.0213 28.7672 33.1577 27.6569C32.294 26.5466 31.2137 25.6358 29.9866 24.9833C31.0845 24.2712 32.0294 23.3349 32.7629 22.2321C33.4964 21.1294 34.0031 19.8835 34.2517 18.5713H31.0235C30.3394 21.1273 28.3298 23.4409 26.4057 23.6613V18.5713H23.124V27.4732C21.1358 26.9664 18.5275 24.4655 18.4206 18.5713H15Z" fill="#CCA352"/>
</svg>
