<svg width="120" height="120" viewBox="0 0 120 120" fill="none" xmlns="http://www.w3.org/2000/svg">
<path d="M118 8.00098H112V4.00098C112 2.80098 111.2 2.00098 110 2.00098H60H10C8.8 2.00098 8 2.80098 8 4.00098V8.00098H2C0.8 8.00098 0 8.80098 0 10.001V84.001C0 85.201 0.8 86.001 2 86.001H88V82.001H4V12.001H8V76.001C8 77.201 8.8 78.001 10 78.001H60H88V74.001H62V6.00098H65.8V57.801C65.8 60.601 67 62.001 67.8 62.801C69.4 64.201 71.4 64.001 72 64.001H91C92.6 64.001 93 64.601 93.2 64.801C94 65.601 94 67.201 94 67.801V68.001V99.3759C94 100.795 93.4917 101.376 92 101.376H70V105.376H91.8C91.8 105.376 92 105.376 92.2 105.376C95.5932 105.376 97.8 102.662 97.8 99.3759V68.201C98 67.401 98.2 64.401 96.2 62.201C95.2 61.201 93.8 60.001 91 60.001H71.8H71.6C71.6 60.001 70.8 60.001 70.4 59.601C69.8 59.201 69.8 58.401 69.8 57.801V6.00098H108V10.001V74.001H104V78.001H110C111.2 78.001 112 77.201 112 76.001V12.001H116V82.001H104V86.001H118C119.2 86.001 120 85.201 120 84.001V10.001C120 8.80098 119.2 8.00098 118 8.00098ZM12 74.001V10.001V6.00098H58V74.001H12Z" fill="#CCA352"/>
<path d="M61.6 90.001H30.6C27 90.001 24 93.201 24 97.001V110.801C24 114.801 27 118.001 30.6 118.001H61.4C64.955 118.001 68.2 114.31 68.2 110.801V97.001C68.2 93.201 65.2 90.001 61.6 90.001ZM64.2 110.001C64.2 110.413 64.2 110.601 64.2 111.001C64.2 112.401 62.8 114.001 61.4 114.001H30.6C29.2 114.001 28 112.601 28 110.801V97.001C28 95.401 29.2 94.001 30.6 94.001H61.6C62.8 94.001 64.2 95.601 64.2 97.001V110.001Z" fill="#CCA352"/>
<path d="M60 101.251H54V105.251H60V101.251Z" fill="#CCA352"/>
<path d="M102 42.001H76V46.001H102V42.001Z" fill="#CCA352"/>
<path d="M102 50.001H76V54.001H102V50.001Z" fill="#CCA352"/>
<path d="M51.75 50.251H25.5V54.001H51.75V50.251Z" fill="#CCA352"/>
<path d="M40.5 58.501H25.5V62.251H40.5V58.501Z" fill="#CCA352"/>
<path d="M21.75 50.251H18V54.001H21.75V50.251Z" fill="#CCA352"/>
<path d="M21.75 58.501H18V62.251H21.75V58.501Z" fill="#CCA352"/>
<path d="M51.75 45.751H25.5V42.001H51.75V45.751Z" fill="#CCA352"/>
<path d="M21.75 45.751H18V42.001H21.75V45.751Z" fill="#CCA352"/>
<path d="M50 10.001H20C18.8 10.001 18 10.801 18 12.001V34.001C18 35.201 18.8 36.001 20 36.001H50C51.2 36.001 52 35.201 52 34.001V12.001C52 10.801 51.2 10.001 50 10.001ZM48 32.001H22V14.001H48V32.001Z" fill="#CCA352"/>
<path fill-rule="evenodd" clip-rule="evenodd" d="M85.14 15.5829C84.1312 15.0009 82.875 15.73 82.875 16.8874L82.875 28.1139C82.875 29.2713 84.1312 30.0003 85.14 29.4184L94.8708 23.8051C95.8764 23.225 95.8764 21.7762 94.8708 21.1961L85.14 15.5829ZM79.125 16.8874C79.125 12.8383 83.5098 10.3133 87.0138 12.3346L96.7446 17.9478C100.252 19.971 100.252 25.0303 96.7446 27.0534L87.0138 32.6667C83.5098 34.688 79.125 32.163 79.125 28.1139L79.125 16.8874Z" fill="#CCA352"/>
</svg>
