<svg width="120" height="120" viewBox="0 0 120 120" fill="none" xmlns="http://www.w3.org/2000/svg">
<g clip-path="url(#clip0_621_398)">
<path d="M38.7097 21.2906C38.7097 13.8196 32.6323 7.74219 25.1613 7.74219C17.6903 7.74219 11.6129 13.8196 11.6129 21.2906C11.6129 28.7615 17.6903 34.839 25.1613 34.839C32.6323 34.839 38.7097 28.7615 38.7097 21.2906ZM15.4839 21.2906C15.4839 15.9544 19.8252 11.6132 25.1613 11.6132C30.4974 11.6132 34.8387 15.9544 34.8387 21.2906C34.8387 26.6267 30.4974 30.968 25.1613 30.968C19.8252 30.968 15.4839 26.6267 15.4839 21.2906Z" fill="#CCA352"/>
<path d="M108.387 77.4195C108.387 69.9485 102.31 63.8711 94.8387 63.8711C87.3677 63.8711 81.2903 69.9485 81.2903 77.4195C81.2903 84.8904 87.3677 90.9679 94.8387 90.9679C102.31 90.9679 108.387 84.8904 108.387 77.4195ZM85.1613 77.4195C85.1613 72.0834 89.5025 67.7421 94.8387 67.7421C100.175 67.7421 104.516 72.0834 104.516 77.4195C104.516 82.7556 100.175 87.0969 94.8387 87.0969C89.5025 87.0969 85.1613 82.7556 85.1613 77.4195Z" fill="#CCA352"/>
<path d="M104.824 101.381L112.748 89.0536C114.96 85.6123 116.129 81.631 116.129 77.4193C116.129 68.3555 110.425 60.6174 102.426 57.5516C101.152 34.9471 82.7923 17.4194 60 17.4194C55.3181 17.4194 50.7542 18.2168 46.3703 19.7052C45.5555 8.70581 36.3658 0 25.1613 0C13.4226 0 3.87097 9.55161 3.87097 21.4123C3.87097 25.5019 5.04 29.4832 7.25226 32.9245L15.1761 45.2516C7.36839 46.4594 0 49.3026 0 54.1935C0 59.2606 8.05548 62.3942 17.6594 63.4568C19.4323 85.5232 37.6858 102.581 60 102.581C67.6974 102.581 75.1703 100.488 81.7548 96.5593L84.8555 101.381C77.0458 102.588 69.6774 105.432 69.6774 110.323C69.6774 116.677 82.3355 120 94.8387 120C107.342 120 120 116.677 120 110.323C120 105.432 112.632 102.588 104.824 101.381ZM46.2735 23.849C48.8361 22.8716 51.4761 22.1845 54.1742 21.7742C50.7464 25.0432 46.1168 30.2632 42.4781 37.2677C41.9071 37.0123 41.3419 36.751 40.7942 36.4664L43.0703 32.9245C44.8277 30.1916 45.8961 27.1084 46.2735 23.849ZM40.8116 40.7613C40.1013 42.4142 39.4742 44.1639 38.9187 45.9813C37.6916 45.6929 36.4258 45.451 35.1465 45.2516L38.6961 39.7297C39.3852 40.0955 40.0916 40.4381 40.8116 40.7613ZM10.5097 30.8323C8.69806 28.0161 7.74194 24.7587 7.74194 21.2903C7.74194 11.6865 15.5574 3.87097 25.1613 3.87097C34.7652 3.87097 42.5806 11.6865 42.5806 21.4123C42.5806 24.7587 41.6245 28.0161 39.8129 30.8323L26.5142 51.5187C25.9181 52.4458 24.4026 52.4458 23.8084 51.5187L10.5097 30.8323ZM3.87097 54.1935C3.87097 52.8523 7.89484 49.9935 17.4871 48.8439L20.5529 53.611C21.5652 55.1884 23.2877 56.129 25.1613 56.129C27.0348 56.129 28.7574 55.1884 29.7716 53.611L32.8374 48.8439C42.4277 49.9935 46.4516 52.8523 46.4516 54.1935C46.4516 56.1639 38.9361 60 25.1613 60C11.3865 60 3.87097 56.1639 3.87097 54.1935ZM31.1477 85.7884C25.8465 79.8426 22.3839 72.2265 21.569 63.7703C22.7613 63.8303 23.9594 63.871 25.1613 63.871C29.1929 63.871 33.2342 63.5206 36.869 62.8394C37.2271 68.9613 38.7213 74.431 40.769 79.2116C35.9768 81.3542 32.8877 83.9671 31.1477 85.7884ZM33.8671 88.5387C35.2935 87.0155 37.9955 84.6542 42.4161 82.6974C46.0471 89.7058 50.7077 94.9471 54.1529 98.2277C46.3897 97.0548 39.391 93.6077 33.8671 88.5387ZM58.0645 96.5284C54.9232 93.6794 49.9684 88.4961 46.1419 81.3232C49.4013 80.3032 53.3477 79.5794 58.0645 79.4168V96.5284ZM58.0645 75.5477C52.6665 75.7219 48.1606 76.589 44.4465 77.8123C42.4258 73.1826 40.9781 67.8697 40.7129 61.9471C40.7265 61.9452 40.7381 61.9394 40.7535 61.9355H58.0645V75.5477ZM58.0645 58.0645H48.4645C49.6355 56.9323 50.3226 55.6452 50.3226 54.1935C50.3226 50.9555 47.0845 48.6194 42.6368 47.0574C43.1594 45.3639 43.7516 43.7303 44.4252 42.1858C48.5419 43.5523 53.1058 44.3071 58.0645 44.4639V58.0645ZM58.0645 40.5948C53.729 40.4477 49.7361 39.8148 46.1361 38.6748C49.9684 31.5019 54.9194 26.3168 58.0645 23.4735V40.5948ZM88.8832 34.1806C94.229 40.1806 97.7013 47.8839 98.4677 56.46C97.2852 56.2568 96.0774 56.129 94.8387 56.129C91.6335 56.129 88.6045 56.8606 85.8755 58.1381V58.0645H83.1774C82.92 51.5768 81.3929 45.7974 79.2445 40.7826C84.0542 38.6303 87.149 36.0019 88.8832 34.1806ZM86.1619 31.4284C84.7452 32.9497 82.0394 35.3265 77.5935 37.2968C73.9626 30.2884 69.2961 25.0471 65.8471 21.7684C73.6452 22.9316 80.6439 26.369 86.1619 31.4284ZM61.9355 23.4716C65.0768 26.3187 70.0374 31.5 73.8677 38.6748C70.6065 39.6948 66.6561 40.4206 61.9355 40.5832V23.4716ZM61.9355 44.4523C67.3374 44.2761 71.8471 43.409 75.5652 42.1839C77.5877 46.8174 79.0413 52.1361 79.3064 58.0645H61.9355V44.4523ZM61.9355 61.9355H79.3006C79.2832 62.2781 79.2581 62.6419 79.2329 63.0039C75.7781 66.7529 73.6374 71.7368 73.5639 77.251C69.96 76.2542 66.0658 75.691 61.9355 75.5555V61.9355ZM61.9355 96.5342V79.4264C66.2284 79.5774 70.2252 80.2297 73.8561 81.3774C70.0432 88.5155 65.0826 93.691 61.9355 96.5342ZM65.7736 98.2742C68.58 95.5955 72.2148 91.5852 75.4587 86.3535C75.8826 87.2845 76.3723 88.1865 76.9297 89.0555L79.6626 93.3058C75.3697 95.8471 70.6703 97.5368 65.7736 98.2742ZM80.1871 86.9613C78.3755 84.1452 77.4193 80.8877 77.4193 77.4193C77.4193 67.8155 85.2348 60 94.8387 60C104.443 60 112.258 67.8155 112.258 77.5413C112.258 80.8877 111.302 84.1452 109.49 86.9613L96.1916 107.648C95.5955 108.575 94.08 108.575 93.4858 107.648L80.1871 86.9613ZM94.8387 116.129C81.0639 116.129 73.5484 112.293 73.5484 110.323C73.5484 108.981 77.5723 106.123 87.1645 104.973L90.2303 109.74C91.2426 111.317 92.9652 112.258 94.8387 112.258C96.7123 112.258 98.4348 111.317 99.449 109.74L102.515 104.973C112.105 106.123 116.129 108.981 116.129 110.323C116.129 112.293 108.614 116.129 94.8387 116.129Z" fill="#CCA352"/>
</g>
<defs>
<clipPath id="clip0_621_398">
<rect width="120" height="120" fill="white"/>
</clipPath>
</defs>
</svg>
